<?xml version="1.0" encoding="UTF-8"?>
<svg width="146px" height="26px" viewBox="0 0 146 26" version="1.1" xmlns="http://www.w3.org/2000/svg" xmlns:xlink="http://www.w3.org/1999/xlink">
    <!-- Generator: sketchtool 40.3 (33839) - http://www.bohemiancoding.com/sketch -->
    <title>624D30B2-B8D9-4A66-9E40-05445A503E6C</title>
    <desc>Created with sketchtool.</desc>
    <defs></defs>
    <g id="Page-1" stroke="none" stroke-width="1" fill="none" fill-rule="evenodd">
        <g id="03.-Menu" transform="translate(-63.000000, -103.000000)" fill="#0A0A0B">
            <g id="menu">
                <path d="M81.6908345,105.525308 C83.4929411,107.066583 84.3939808,109.259904 84.3939808,112.105335 C84.3939808,115.093038 83.4929411,117.413808 81.6908345,119.067715 C79.8887279,120.721622 77.3634453,121.548564 74.1149111,121.548564 L69.4911081,121.548564 L69.4911081,128.715458 L63,128.715458 L63,103.213406 L74.1149111,103.213406 C77.3634453,103.213406 79.8887279,103.984032 81.6908345,105.525308 L81.6908345,105.525308 Z M69.4911081,116.444596 L73.7948016,116.444596 C75.2293733,116.444596 76.3319615,116.091887 77.1025992,115.386457 C77.8732369,114.681027 78.2585499,113.658465 78.2585499,112.318741 C78.2585499,111.002729 77.8702729,110.006843 77.0937073,109.331053 C76.3171416,108.655263 75.2175174,108.317373 73.7948016,108.317373 L69.4911081,108.317373 L69.4911081,116.444596 Z M91.9322017,128.715458 L91.9322017,103.213406 L98.4233098,103.213406 L98.4233098,128.715458 L91.9322017,128.715458 Z M125.50599,128.715458 L113.768644,113.012312 L113.768644,128.715458 L107.686565,128.715458 L107.686565,103.213406 L113.412967,103.213406 L125.168097,118.95212 L125.168097,103.213406 L131.214609,103.213406 L131.214609,128.715458 L125.50599,128.715458 Z M152.072939,121.548564 L151.877316,121.548564 L146.968972,121.548564 L146.968972,128.715458 L140.477864,128.715458 L140.477864,103.213406 L151.877316,103.213406 C155.256266,103.213406 157.867503,103.984032 159.711106,105.525308 C161.554708,107.066583 162.476496,109.259904 162.476496,112.105335 C162.476496,114.049713 162.082291,115.712487 161.293869,117.093707 C160.505447,118.474927 159.3584,119.544912 157.852693,120.303694 L163.205634,128.715458 L155.860901,128.715458 L152.072939,121.548564 Z M151.877316,116.444596 C153.288176,116.444596 154.381873,116.091887 155.158438,115.386457 C155.935004,114.681027 156.323281,113.658465 156.323281,112.318741 C156.323281,111.002729 155.935004,110.006843 155.158438,109.331053 C154.381873,108.655263 153.288176,108.317373 151.877316,108.317373 L146.968972,108.317373 L146.968972,116.444596 L151.877316,116.444596 Z M190.154935,104.698358 C192.259369,105.830603 193.910287,107.377783 195.10774,109.339945 C196.305192,111.302107 196.903909,113.498392 196.903909,115.928865 C196.903909,118.383049 196.305192,120.606009 195.10774,122.597811 C193.910287,124.589613 192.259369,126.154577 190.154935,127.29275 C188.050502,128.430922 185.700092,129 183.103636,129 C180.530891,129 178.195302,128.430922 176.096796,127.29275 C173.99829,126.154577 172.347372,124.589613 171.143991,122.597811 C169.940611,120.606009 169.33893,118.383049 169.33893,115.928865 C169.33893,113.47468 169.940611,111.26654 171.143991,109.304378 C172.347372,107.342215 173.992362,105.800963 176.079012,104.680575 C178.165662,103.560186 180.50718,103 183.103636,103 C185.700092,103 188.050502,103.566114 190.154935,104.698358 L190.154935,104.698358 Z M179.591324,109.411081 C178.482791,110.069087 177.602499,110.97309 176.950421,112.123119 C176.298343,113.273148 175.972309,114.553573 175.972309,115.964432 C175.972309,117.375292 176.298343,118.664609 176.950421,119.832421 C177.602499,121.000234 178.482791,121.916093 179.591324,122.580027 C180.699857,123.243961 181.894327,123.575923 183.174771,123.575923 C184.467071,123.575923 185.65265,123.243961 186.731543,122.580027 C187.810435,121.916093 188.667016,121.000234 189.30131,119.832421 C189.935604,118.664609 190.252747,117.375292 190.252747,115.964432 C190.252747,114.553573 189.935604,113.273148 189.30131,112.123119 C188.667016,110.97309 187.810435,110.069087 186.731543,109.411081 C185.65265,108.753075 184.467071,108.424077 183.174771,108.424077 C181.894327,108.424077 180.699857,108.753075 179.591324,109.411081 L179.591324,109.411081 Z M207.732144,123.762654 C208.30123,124.325812 208.585769,125.051979 208.585769,125.941176 C208.585769,126.84223 208.30123,127.577289 207.732144,128.146375 C207.163058,128.715461 206.427999,129 205.526946,129 C204.625892,129 203.896761,128.715461 203.339531,128.146375 C202.782301,127.577289 202.50369,126.84223 202.50369,125.941176 C202.50369,125.040123 202.782301,124.310992 203.339531,123.753762 C203.896761,123.196532 204.625892,122.917921 205.526946,122.917921 C206.427999,122.917921 207.163058,123.199496 207.732144,123.762654 L207.732144,123.762654 Z" id="PINRO.-Copy"></path>
            </g>
        </g>
    </g>
</svg>